<svg width="194" height="52" viewBox="0 0 194 52" fill="none" xmlns="http://www.w3.org/2000/svg">
<path d="M22.1209 6.33634C17.1153 4.4924 16.1977 8.03677 16.1063 8.80218H16.0976V8.9022C16.0933 8.96309 16.0889 9.00223 16.0889 9.00223H16.0976C16.5891 11.0506 16.95 11.9899 21.6773 11.716C26.3045 11.4463 26.448 10.0068 26.448 10.0068C26.448 10.0068 26.9003 8.09765 22.1209 6.33634ZM18.907 7.51925C18.907 7.51925 19.5507 6.60162 20.5553 7.84976C20.5509 7.84976 19.642 8.74564 18.907 7.51925ZM10.3875 45.5723C9.91347 45.7941 8.76535 46.2942 7.02144 46.8726C3.9598 47.8859 7.70857 47.8815 7.70857 47.8815C7.70857 47.8815 8.81319 47.7946 10.4179 47.2988L10.3875 45.5723ZM15.3409 16.9607L15.2713 20.9748C17.311 21.1444 19.0158 21.7315 19.4941 23.1493C20.7814 26.9633 14.0449 27.3547 8.5827 29.1682C2.89431 31.0556 3.51621 38.1661 10.2788 39.4533L10.2222 36.2221C10.1527 36.2004 10.0831 36.1743 10.0178 36.1525C9.32201 35.8785 8.67837 35.3871 8.49137 34.9044C8.30872 33.8824 9.1785 32.4081 12.0401 31.7558C17.237 30.5642 21.6251 29.7944 22.9298 27.2851C26.2393 20.9139 20.3813 17.0477 15.3409 16.9607Z" fill="url(#paint0_linear_27_81)"/>
<path d="M16.9891 6.84955C11.7617 7.17137 2.15492 8.40646 0.450145 13.4512C-1.72866 19.9093 4.54682 21.849 7.62151 21.4619C8.29559 21.3793 9.05665 21.3271 9.94818 21.1618L9.88295 17.4696C4.99911 17.661 3.37262 16.178 5.20786 14.1427C7.53453 11.5638 13.2273 10.9419 16.8369 10.8158M15.4191 36.9919C15.2669 36.9788 15.1277 36.9658 14.9842 36.9528L14.932 39.8274C16.502 40.1796 15.9366 41.0451 14.932 42.3237C14.919 42.3411 14.9016 42.3585 14.8885 42.3759L14.8364 45.207C15.2104 44.9591 15.5844 44.6938 15.9584 44.3981C17.25 43.3717 17.5457 42.9412 18.3329 41.9801C19.5462 40.1405 19.4941 37.3268 15.4191 36.9919Z" fill="url(#paint1_linear_27_81)"/>
<path d="M10.5657 12.4031L10.9049 27.4808C12.0443 27.1851 13.4577 26.8024 14.3318 26.5632L14.6667 11.7595C13.6665 11.8551 12.0704 12.0465 10.5657 12.4031ZM13.0446 32.4473C13.0446 32.4473 11.7051 32.7169 11.031 32.9909L11.4224 50.33C11.4224 51.2563 11.9573 52 12.6097 52C13.262 52 13.7969 51.3912 13.7969 50.33L14.2057 32.1733L13.0446 32.4473ZM12.5444 0C11.2702 0 10.4265 1.04374 10.4265 2.32232V4.80555L10.4744 6.89738C11.2093 6.73647 12.5966 6.48423 14.8276 6.24939L14.8581 4.8099V2.32667C14.8624 1.04374 13.8187 0 12.5444 0Z" fill="url(#paint2_linear_27_81)"/>
<path d="M44.8355 38V12.8H53.6555L58.0115 34.76H58.6595L63.0155 12.8H71.8355V38H67.2275V16.292H66.5795L62.2595 38H54.4115L50.0915 16.292H49.4435V38H44.8355ZM84.8616 38.504C83.0856 38.504 81.5136 38.132 80.1456 37.388C78.8016 36.62 77.7456 35.552 76.9776 34.184C76.2336 32.792 75.8616 31.16 75.8616 29.288V28.856C75.8616 26.984 76.2336 25.364 76.9776 23.996C77.7216 22.604 78.7656 21.536 80.1096 20.792C81.4536 20.024 83.0136 19.64 84.7896 19.64C86.5416 19.64 88.0656 20.036 89.3616 20.828C90.6576 21.596 91.6656 22.676 92.3856 24.068C93.1056 25.436 93.4656 27.032 93.4656 28.856V30.404H80.4696C80.5176 31.628 80.9736 32.624 81.8376 33.392C82.7016 34.16 83.7576 34.544 85.0056 34.544C86.2776 34.544 87.2136 34.268 87.8136 33.716C88.4136 33.164 88.8696 32.552 89.1816 31.88L92.8896 33.824C92.5536 34.448 92.0616 35.132 91.4136 35.876C90.7896 36.596 89.9496 37.22 88.8936 37.748C87.8376 38.252 86.4936 38.504 84.8616 38.504ZM80.5056 27.02H88.8576C88.7616 25.988 88.3416 25.16 87.5976 24.536C86.8776 23.912 85.9296 23.6 84.7536 23.6C83.5296 23.6 82.5576 23.912 81.8376 24.536C81.1176 25.16 80.6736 25.988 80.5056 27.02ZM104.703 38.504C103.287 38.504 101.955 38.156 100.707 37.46C99.4829 36.74 98.4989 35.696 97.7549 34.328C97.0109 32.96 96.6389 31.304 96.6389 29.36V28.784C96.6389 26.84 97.0109 25.184 97.7549 23.816C98.4989 22.448 99.4829 21.416 100.707 20.72C101.931 20 103.263 19.64 104.703 19.64C105.783 19.64 106.683 19.772 107.403 20.036C108.147 20.276 108.747 20.588 109.203 20.972C109.659 21.356 110.007 21.764 110.247 22.196H110.895V12.8H115.431V38H110.967V35.84H110.319C109.911 36.512 109.275 37.124 108.411 37.676C107.571 38.228 106.335 38.504 104.703 38.504ZM106.071 34.544C107.463 34.544 108.627 34.1 109.563 33.212C110.499 32.3 110.967 30.98 110.967 29.252V28.892C110.967 27.164 110.499 25.856 109.563 24.968C108.651 24.056 107.487 23.6 106.071 23.6C104.679 23.6 103.515 24.056 102.579 24.968C101.643 25.856 101.175 27.164 101.175 28.892V29.252C101.175 30.98 101.643 32.3 102.579 33.212C103.515 34.1 104.679 34.544 106.071 34.544Z" fill="#10217D"/>
<path d="M120.46 38V12.8H124.996V22.34H125.644C125.836 21.956 126.136 21.572 126.544 21.188C126.952 20.804 127.492 20.492 128.164 20.252C128.86 19.988 129.736 19.856 130.792 19.856C132.184 19.856 133.396 20.18 134.428 20.828C135.484 21.452 136.3 22.328 136.876 23.456C137.452 24.56 137.74 25.856 137.74 27.344V38H133.204V27.704C133.204 26.36 132.868 25.352 132.196 24.68C131.548 24.008 130.612 23.672 129.388 23.672C127.996 23.672 126.916 24.14 126.148 25.076C125.38 25.988 124.996 27.272 124.996 28.928V38H120.46ZM150.78 38.504C149.004 38.504 147.432 38.132 146.064 37.388C144.72 36.62 143.664 35.552 142.896 34.184C142.152 32.792 141.78 31.16 141.78 29.288V28.856C141.78 26.984 142.152 25.364 142.896 23.996C143.64 22.604 144.684 21.536 146.028 20.792C147.372 20.024 148.932 19.64 150.708 19.64C152.46 19.64 153.984 20.036 155.28 20.828C156.576 21.596 157.584 22.676 158.304 24.068C159.024 25.436 159.384 27.032 159.384 28.856V30.404H146.388C146.436 31.628 146.892 32.624 147.756 33.392C148.62 34.16 149.676 34.544 150.924 34.544C152.196 34.544 153.132 34.268 153.732 33.716C154.332 33.164 154.788 32.552 155.1 31.88L158.808 33.824C158.472 34.448 157.98 35.132 157.332 35.876C156.708 36.596 155.868 37.22 154.812 37.748C153.756 38.252 152.412 38.504 150.78 38.504ZM146.424 27.02H154.776C154.68 25.988 154.26 25.16 153.516 24.536C152.796 23.912 151.848 23.6 150.672 23.6C149.448 23.6 148.476 23.912 147.756 24.536C147.036 25.16 146.592 25.988 146.424 27.02ZM163.421 38V12.8H167.957V38H163.421ZM172.983 45.2V20.144H177.447V22.304H178.095C178.503 21.608 179.139 20.996 180.003 20.468C180.867 19.916 182.103 19.64 183.711 19.64C185.151 19.64 186.483 20 187.707 20.72C188.931 21.416 189.915 22.448 190.659 23.816C191.403 25.184 191.775 26.84 191.775 28.784V29.36C191.775 31.304 191.403 32.96 190.659 34.328C189.915 35.696 188.931 36.74 187.707 37.46C186.483 38.156 185.151 38.504 183.711 38.504C182.631 38.504 181.719 38.372 180.975 38.108C180.255 37.868 179.667 37.556 179.211 37.172C178.779 36.764 178.431 36.356 178.167 35.948H177.519V45.2H172.983ZM182.343 34.544C183.759 34.544 184.923 34.1 185.835 33.212C186.771 32.3 187.239 30.98 187.239 29.252V28.892C187.239 27.164 186.771 25.856 185.835 24.968C184.899 24.056 183.735 23.6 182.343 23.6C180.951 23.6 179.787 24.056 178.851 24.968C177.915 25.856 177.447 27.164 177.447 28.892V29.252C177.447 30.98 177.915 32.3 178.851 33.212C179.787 34.1 180.951 34.544 182.343 34.544Z" fill="#16C2D5"/>
<defs>
<linearGradient id="paint0_linear_27_81" x1="5.7663" y1="2.0781" x2="21.7723" y2="42.3593" gradientUnits="userSpaceOnUse">
<stop stop-color="#10217D"/>
<stop offset="1" stop-color="#16C2D5"/>
</linearGradient>
<linearGradient id="paint1_linear_27_81" x1="0.914593" y1="3.44592" x2="15.9436" y2="39.7491" gradientUnits="userSpaceOnUse">
<stop stop-color="#10217D"/>
<stop offset="1" stop-color="#16C2D5"/>
</linearGradient>
<linearGradient id="paint2_linear_27_81" x1="10.6396" y1="-4.61419" x2="31.0517" y2="3.85831" gradientUnits="userSpaceOnUse">
<stop stop-color="#10217D"/>
<stop offset="1" stop-color="#16C2D5"/>
</linearGradient>
</defs>
</svg>
